<?xml version="1.0" encoding="utf-8"?><svg version="1.1" id="Layer_1" xmlns="http://www.w3.org/2000/svg" xmlns:xlink="http://www.w3.org/1999/xlink" x="0px" y="0px" viewBox="0 0 55.2 38.4" style="enable-background:new 0 0 55.2 38.4" xml:space="preserve"><style type="text/css">.st0{fill:#DE2910;} .st1{fill:#FFDE00;}</style><g><path class="st0" d="M3.01,0h49.17c1.66,0.01,3.01,1.37,3.01,3.03v32.33c0,1.66-1.35,3.02-3.01,3.03L3,38.4 c-1.65-0.02-3-1.38-3-3.03V3.03C0,1.37,1.35,0.01,3.01,0L3.01,0z"/><polygon class="st1" points="8.4,3.84 11.79,14.26 2.92,7.82 13.88,7.82 5.01,14.26 8.4,3.84"/><polygon class="st1" points="18.75,2.07 18.43,5.71 16.55,2.58 19.91,4.01 16.35,4.83 18.75,2.07"/><polygon class="st1" points="23.22,6.34 21.51,9.57 20.99,5.96 23.54,8.58 19.94,7.95 23.22,6.34"/><polygon class="st1" points="23.64,12.78 20.77,15.03 21.77,11.52 23.02,14.95 19.99,12.91 23.64,12.78"/><polygon class="st1" points="18.68,15.48 18.51,19.13 16.5,16.08 19.92,17.37 16.4,18.34 18.68,15.48"/></g></svg>